<svg width="16" height="16" viewBox="0 0 16 16" fill="none" xmlns="http://www.w3.org/2000/svg">
<g id="location_on">
<mask id="mask0_931_3134" style="mask-type:alpha" maskUnits="userSpaceOnUse" x="0" y="0" width="16" height="16">
<rect id="Bounding box" width="16" height="16" fill="#D9D9D9"/>
</mask>
<g mask="url(#mask0_931_3134)">
<path id="location_on_2" d="M8.0013 8.00065C8.36797 8.00065 8.68186 7.8701 8.94297 7.60898C9.20408 7.34787 9.33464 7.03398 9.33464 6.66732C9.33464 6.30065 9.20408 5.98676 8.94297 5.72565C8.68186 5.46454 8.36797 5.33398 8.0013 5.33398C7.63464 5.33398 7.32075 5.46454 7.05964 5.72565C6.79852 5.98676 6.66797 6.30065 6.66797 6.66732C6.66797 7.03398 6.79852 7.34787 7.05964 7.60898C7.32075 7.8701 7.63464 8.00065 8.0013 8.00065ZM8.0013 12.9007C9.35686 11.6562 10.3624 10.5257 11.018 9.50898C11.6735 8.49232 12.0013 7.58954 12.0013 6.80065C12.0013 5.58954 11.6152 4.59787 10.843 3.82565C10.0707 3.05343 9.12352 2.66732 8.0013 2.66732C6.87908 2.66732 5.93186 3.05343 5.15964 3.82565C4.38741 4.59787 4.0013 5.58954 4.0013 6.80065C4.0013 7.58954 4.32908 8.49232 4.98464 9.50898C5.64019 10.5257 6.64575 11.6562 8.0013 12.9007ZM8.0013 14.6673C6.21241 13.1451 4.8763 11.7312 3.99297 10.4257C3.10964 9.12009 2.66797 7.91176 2.66797 6.80065C2.66797 5.13398 3.20408 3.80621 4.2763 2.81732C5.34852 1.82843 6.59019 1.33398 8.0013 1.33398C9.41241 1.33398 10.6541 1.82843 11.7263 2.81732C12.7985 3.80621 13.3346 5.13398 13.3346 6.80065C13.3346 7.91176 12.893 9.12009 12.0096 10.4257C11.1263 11.7312 9.79019 13.1451 8.0013 14.6673Z" fill="#3A3A3C"/>
</g>
</g>
</svg>
