<svg width="16" height="16" viewBox="0 0 16 16" fill="none" xmlns="http://www.w3.org/2000/svg">
<g id="mail">
<mask id="mask0_931_3112" style="mask-type:alpha" maskUnits="userSpaceOnUse" x="0" y="0" width="16" height="16">
<rect id="Bounding box" width="16" height="16" fill="#D9D9D9"/>
</mask>
<g mask="url(#mask0_931_3112)">
<path id="mail_2" d="M2.66536 13.3327C2.2987 13.3327 1.98481 13.2021 1.7237 12.941C1.46259 12.6799 1.33203 12.366 1.33203 11.9993V3.99935C1.33203 3.63268 1.46259 3.31879 1.7237 3.05768C1.98481 2.79657 2.2987 2.66602 2.66536 2.66602H13.332C13.6987 2.66602 14.0126 2.79657 14.2737 3.05768C14.5348 3.31879 14.6654 3.63268 14.6654 3.99935V11.9993C14.6654 12.366 14.5348 12.6799 14.2737 12.941C14.0126 13.2021 13.6987 13.3327 13.332 13.3327H2.66536ZM7.9987 8.66602L2.66536 5.33268V11.9993H13.332V5.33268L7.9987 8.66602ZM7.9987 7.33268L13.332 3.99935H2.66536L7.9987 7.33268ZM2.66536 5.33268V3.99935V11.9993V5.33268Z" fill="#3A3A3C"/>
</g>
</g>
</svg>
