<svg width="16" height="16" viewBox="0 0 16 16" fill="none" xmlns="http://www.w3.org/2000/svg">
<g id="print">
<mask id="mask0_931_3118" style="mask-type:alpha" maskUnits="userSpaceOnUse" x="0" y="0" width="16" height="16">
<rect id="Bounding box" width="16" height="16" fill="#D9D9D9"/>
</mask>
<g mask="url(#mask0_931_3118)">
<path id="print_2" d="M10.6654 5.33333V3.33333H5.33203V5.33333H3.9987V2H11.9987V5.33333H10.6654ZM11.9987 8.33333C12.1876 8.33333 12.3459 8.26944 12.4737 8.14167C12.6015 8.01389 12.6654 7.85556 12.6654 7.66667C12.6654 7.47778 12.6015 7.31944 12.4737 7.19167C12.3459 7.06389 12.1876 7 11.9987 7C11.8098 7 11.6515 7.06389 11.5237 7.19167C11.3959 7.31944 11.332 7.47778 11.332 7.66667C11.332 7.85556 11.3959 8.01389 11.5237 8.14167C11.6515 8.26944 11.8098 8.33333 11.9987 8.33333ZM10.6654 12.6667V10H5.33203V12.6667H10.6654ZM11.9987 14H3.9987V11.3333H1.33203V7.33333C1.33203 6.76667 1.52648 6.29167 1.91536 5.90833C2.30425 5.525 2.77648 5.33333 3.33203 5.33333H12.6654C13.232 5.33333 13.707 5.525 14.0904 5.90833C14.4737 6.29167 14.6654 6.76667 14.6654 7.33333V11.3333H11.9987V14ZM13.332 10V7.33333C13.332 7.14444 13.2681 6.98611 13.1404 6.85833C13.0126 6.73056 12.8543 6.66667 12.6654 6.66667H3.33203C3.14314 6.66667 2.98481 6.73056 2.85703 6.85833C2.72925 6.98611 2.66536 7.14444 2.66536 7.33333V10H3.9987V8.66667H11.9987V10H13.332Z" fill="#3A3A3C"/>
</g>
</g>
</svg>
